<?xml version="1.0" standalone="no"?>
<!DOCTYPE svg PUBLIC "-//W3C//DTD SVG 20010904//EN"
 "http://www.w3.org/TR/2001/REC-SVG-20010904/DTD/svg10.dtd">
<svg version="1.0" xmlns="http://www.w3.org/2000/svg"
 width="700.000000pt" height="700.000000pt" viewBox="0 0 700.000000 700.000000"
 preserveAspectRatio="xMidYMid meet">
<metadata>
Created by potrace 1.14, written by Peter Selinger 2001-2017
</metadata>
<g transform="translate(0.000000,700.000000) scale(0.100000,-0.100000)"
fill="#000000" stroke="none">
<path d="M655 6989 c-69 -15 -118 -31 -173 -55 -29 -13 -55 -24 -58 -24 -13 0
-135 -89 -182 -134 -66 -62 -151 -189 -185 -277 -60 -151 -56 53 -54 -3024 3
-2524 5 -2826 19 -2875 72 -255 258 -461 493 -548 67 -25 87 -30 160 -42 28
-5 1315 -8 2860 -7 l2810 2 75 23 c246 76 432 245 525 477 58 147 55 -20 52
3039 l-2 2811 -24 70 c-65 194 -170 337 -326 441 -81 55 -140 80 -248 109
l-92 25 -2805 -1 c-1569 -1 -2823 -5 -2845 -10z m1607 -1426 c225 -225 408
-411 408 -415 0 -8 -811 -818 -819 -818 -3 0 -190 184 -415 409 l-409 409 409
411 c225 225 411 410 414 410 3 1 188 -182 412 -406z m1661 -4 l411 -410 -410
-410 c-225 -225 -411 -409 -415 -409 -7 0 -819 811 -819 819 0 6 812 821 819
821 2 0 188 -185 414 -411z m1656 0 l411 -411 -407 -409 c-225 -225 -412 -409
-416 -409 -5 0 -193 184 -418 409 l-409 408 411 412 c226 226 412 411 414 411
2 0 188 -185 414 -411z m-3315 -1655 c223 -224 406 -409 406 -413 0 -3 -184
-190 -409 -415 l-410 -409 -412 412 -412 412 409 410 c225 225 412 409 415
409 4 0 190 -183 413 -406z m1660 -3 l409 -409 -412 -413 -412 -413 -413 413
-413 413 410 409 c225 225 412 409 416 409 3 0 190 -184 415 -409z m1658 0
l409 -408 -390 -389 c-213 -214 -400 -399 -413 -412 l-25 -22 -406 406 c-224
224 -407 412 -407 417 0 12 801 816 814 817 5 0 193 -184 418 -409z m-2912
-2065 c0 -5 -184 -193 -409 -418 l-408 -408 -389 389 c-214 214 -399 400 -412
414 l-23 24 412 412 412 411 408 -407 c225 -225 409 -412 409 -417z m1255 407
c210 -210 387 -389 394 -397 9 -11 -63 -88 -400 -425 l-411 -411 -409 409
c-225 225 -409 412 -409 416 0 4 183 191 408 415 389 390 408 407 426 392 10
-10 190 -189 401 -399z m1653 -820 l-413 -413 -412 412 -413 413 412 412 413
413 412 -412 413 -413 -412 -412z"/>
</g>
</svg>
