<svg width="300" height="300" viewBox="0 0 300 300" fill="none" xmlns="http://www.w3.org/2000/svg">
<path fill-rule="evenodd" clip-rule="evenodd" d="M34 0C15.2227 0 0 15.2223 0 34V266C0 284.778 15.2227 300 34 300H266C284.777 300 300 284.778 300 266V34C300 15.2223 284.777 0 266 0H34ZM114.711 79.3553L79.3555 44L44 79.3553L79.3555 114.711L114.711 79.3553ZM79.3555 115L114.711 150.355L79.3555 185.711L44 150.355L79.3555 115ZM185.711 150.355L150.355 115L115 150.355L150.355 185.711L185.711 150.355ZM150.355 186L185.711 221.355L150.355 256.711L115 221.355L150.355 186ZM256.711 221.355L221.355 186L186 221.355L221.355 256.711L256.711 221.355ZM221.355 115L256.711 150.355L221.355 185.711L186 150.355L221.355 115ZM114.711 221.355L79.3555 186L44 221.355L79.3555 256.711L114.711 221.355ZM150.355 44L185.711 79.3553L150.355 114.711L115 79.3553L150.355 44ZM256.711 79.3553L221.355 44L186 79.3553L221.355 114.711L256.711 79.3553Z" fill="#777777"/>
</svg>
